<?xml version="1.0" encoding="utf-8"?>
<!-- Generator: Adobe Illustrator 25.2.1, SVG Export Plug-In . SVG Version: 6.00 Build 0)  -->
<svg version="1.1" id="Capa_1" xmlns="http://www.w3.org/2000/svg" xmlns:xlink="http://www.w3.org/1999/xlink" x="0px" y="0px"
	 viewBox="0 0 409 118.6" style="enable-background:new 0 0 409 118.6;" xml:space="preserve">
<style type="text/css">
	.st0{fill:#5A5757;}
	.st1{fill:#CB6842;}
	.st2{font-family:'JosefinSans-Bold';}
	.st3{font-size:48px;}
</style>
<g>
	<path d="M37.3,4.6c0.7,0,1.5,0,2.2,0c6.8,0.2,9.7,4.7,11.2,10.4c2,7.9,2.1,15.9,1.6,24c-0.4,5.5-0.7,10.9-0.9,16.4
		c0,0.9-0.4,2.2,1.1,2.4c1.5,0.2,3,0,3.6-1.7c0.7-2.1,0.9-4.3,1-6.5c0.3-5.9-0.3-11.7-0.8-17.5c-0.2-1.8-0.4-3.7-0.1-5.5
		c0.5-3.1,2.1-5.4,5.1-6.6c3.2-1.2,6.1-0.7,8.7,1.4c1.6,1.3,1.9,3,2,4.9c0,5.6,0,11.2,0,16.8C72.1,47,72,51,71.6,54.9
		c-1.2,10.8-7.5,16.8-18.2,16.8c-2.5,0-3.1,0.9-3.3,3.1c-0.5,6.8-0.9,13.7-1.5,20.5c0,4.8-1.1,6.1-5.8,6.9c-2.2,0.4-4.3,0.3-6.5-0.1
		c-4.6-0.9-5.6-2.2-5.3-6.9c-0.8-7-0.9-14-1.5-21c-0.2-2.2-0.9-2.9-3.2-2.7C15.4,72.7,8.6,67.8,5.9,57.2C4.8,52.7,4.6,48,4.5,43.4
		c-0.1-5.1,0-10.2,0-15.4c0-5.1,3.3-8.6,8.2-8.6c4.8,0,8.7,3.9,8.5,8.9c-0.1,3-0.5,6-0.7,9c-0.4,5.7-0.6,11.3,0.1,17
		c0.4,3,1.5,3.6,4.4,3.7c2,0.1,2.8-0.7,2.6-2.7c-0.5-3.6-0.9-7.3-1.4-10.9c-1.2-8.5-2-17.1-0.8-25.7c0.2-1.6,0.6-3.2,1.2-4.8
		C28.4,8.7,31.2,4.8,37.3,4.6z"/>
	<path class="st0" d="M71.9,25.9c0.2,0,0.3,0,0.5,0.1c0,5.9,0,11.7,0,17.6c-0.2,0.1-0.3,0.1-0.5,0.2C71.9,37.8,71.9,31.8,71.9,25.9z
		"/>
</g>
<text transform="matrix(1 0 0 1 91.2492 76.068)"><tspan x="0" y="0" class="st1 st2 st3">R</tspan><tspan x="32.9" y="0" class="st2 st3">aíces</tspan><tspan x="147" y="0" class="st1 st2 st3">J</tspan><tspan x="166.2" y="0" class="st2 st3">ujeñas</tspan></text>
<path class="st1" d="M49,94.2c4.3,0.7,8.6,1.3,12.9,2.1c1.7,0.3,3.4,1,5.1,1.7c0.9,0.4,2,1.1,1.9,2.4c0,1.3-1,2-2,2.4
	c-2.8,1.3-5.8,1.8-8.7,2.4c-2.6,0.5-5.4,0.1-7.9,1.3c-7.6,0-15.1,0-22.7,0c-3.9-0.7-7.8-1.3-11.6-2.1c-1.5-0.3-3-0.8-4.5-1.4
	c-1.2-0.5-2.5-1.2-2.5-2.7c0.1-1.4,1.4-2.2,2.6-2.7c3.7-1.6,7.7-2.1,11.6-2.7c2.5-0.4,5-0.5,7.5-0.8c0.5,6.9,0.5,6.9,7.1,7.7
	c1.4,0.2,2.7,0.2,4,0.1C48.1,101.2,48.3,101.1,49,94.2z"/>
</svg>
